<?xml version="1.0" encoding="utf-8"?>
<!-- Generator: Adobe Illustrator 21.0.2, SVG Export Plug-In . SVG Version: 6.00 Build 0)  -->
<svg version="1.1" id="Layer_1" xmlns="http://www.w3.org/2000/svg" xmlns:xlink="http://www.w3.org/1999/xlink" x="0px" y="0px"
	 viewBox="0 0 120 31" style="enable-background:new 0 0 120 31;" xml:space="preserve">
<style type="text/css">
	.st0{fill:#FFFFFF;}
</style>
<g>
	<g>
		<g>
			<path class="st0" d="M116.1,2.7v9.7H52.5V2.7H116.1 M118.5,0.3H50.1v14.5h68.4V0.3L118.5,0.3z"/>
		</g>
	</g>
	<g>
		<g>
			<polygon class="st0" points="17,15.1 15.3,13.4 20.8,7.8 15.3,2.3 17,0.6 24.2,7.8 			"/>
		</g>
	</g>
	<g>
		<g>
			<polygon class="st0" points="7.3,15.1 0.1,7.8 7.3,0.6 9,2.3 3.4,7.8 9,13.4 			"/>
		</g>
	</g>
	<g>
		<g>
			<g>
				<polygon class="st0" points="30.1,9.9 28.6,8 37.5,1.1 46.4,8 45,9.9 37.5,4.1 				"/>
			</g>
		</g>
		<g>
			<polygon class="st0" points="43.3,14.3 31.8,14.3 31.8,5.8 34.2,5.8 34.2,11.9 40.9,11.9 40.9,5.8 43.3,5.8 			"/>
		</g>
	</g>
	<g>
		<g>
			<path class="st0" d="M1.5,28.1c0-0.2,0-0.4,0-0.6c0-0.2,0-0.3,0-0.5c0-0.2,0-0.3,0-0.5c0-0.2,0-0.3,0-0.5c0-0.1,0-0.2-0.1-0.3
				c-0.1-0.1-0.1-0.2-0.3-0.3S1,25.3,0.8,25.3c-0.2-0.1-0.5-0.1-0.8-0.1v-1.2c0.3,0,0.6,0,0.8-0.1c0.2-0.1,0.4-0.1,0.5-0.2
				c0.1-0.1,0.2-0.2,0.3-0.3c0.1-0.1,0.1-0.2,0.1-0.3c0-0.2,0-0.4,0-0.5c0-0.2,0-0.3,0-0.5c0-0.2,0-0.3,0-0.5c0-0.2,0-0.4,0-0.6
				c0-0.3,0-0.6,0.1-0.9c0.1-0.2,0.2-0.4,0.4-0.6c0.2-0.1,0.4-0.2,0.7-0.3c0.3-0.1,0.6-0.1,1.1-0.1h1v1.1H4.5c-0.2,0-0.4,0-0.6,0
				c-0.1,0-0.3,0.1-0.4,0.1c-0.1,0.1-0.1,0.1-0.2,0.2c0,0.1-0.1,0.2-0.1,0.4c0,0.3,0,0.6,0,0.9s0,0.6,0,1c0,0.5-0.1,0.9-0.3,1.1
				c-0.2,0.2-0.5,0.4-1,0.4v0.1c0.5,0.1,0.8,0.2,1,0.4c0.2,0.2,0.3,0.6,0.3,1.1c0,0.4,0,0.7,0,1c0,0.3,0,0.6,0,0.9
				c0,0.2,0,0.3,0.1,0.4c0,0.1,0.1,0.2,0.2,0.2c0.1,0.1,0.2,0.1,0.4,0.1c0.2,0,0.3,0,0.6,0h0.5v1.1h-1c-0.4,0-0.8,0-1.1-0.1
				s-0.5-0.2-0.7-0.3c-0.2-0.1-0.3-0.3-0.4-0.6C1.6,28.7,1.5,28.4,1.5,28.1z"/>
		</g>
		<g>
			<path class="st0" d="M6.7,21.8h1.4l0.1,0.8h0.1c0.1-0.3,0.3-0.5,0.5-0.7c0.2-0.2,0.5-0.3,0.8-0.3c0.3,0,0.5,0.1,0.7,0.3
				c0.2,0.2,0.3,0.4,0.4,0.8c0.1-0.3,0.3-0.5,0.5-0.7c0.2-0.2,0.5-0.3,0.9-0.3c0.4,0,0.8,0.2,1,0.5c0.2,0.4,0.4,0.8,0.4,1.5V28h-1.7
				v-4.2c0-0.4-0.1-0.6-0.4-0.6c-0.2,0-0.4,0.2-0.6,0.6V28H9.3v-4.2c0-0.4-0.1-0.6-0.4-0.6c-0.1,0-0.2,0.1-0.3,0.1
				c-0.1,0.1-0.2,0.3-0.3,0.5V28H6.7V21.8z"/>
		</g>
		<g>
			<path class="st0" d="M15.2,26.1c0.4,0.2,0.7,0.4,1.1,0.5c0.4,0.1,0.8,0.2,1.2,0.2c0.4,0,0.7,0,0.9-0.1c0.2-0.1,0.3-0.2,0.3-0.4
				c0-0.2-0.2-0.3-0.5-0.5c-0.3-0.1-0.7-0.3-1.2-0.4c-0.3-0.1-0.5-0.2-0.8-0.3c-0.3-0.1-0.5-0.2-0.7-0.4c-0.2-0.1-0.4-0.3-0.5-0.5
				c-0.1-0.2-0.2-0.4-0.2-0.7c0-0.3,0.1-0.5,0.2-0.8c0.1-0.2,0.3-0.4,0.6-0.6c0.2-0.2,0.5-0.3,0.9-0.4c0.4-0.1,0.8-0.1,1.2-0.1
				c0.5,0,1.1,0.1,1.5,0.3c0.5,0.2,0.8,0.4,1.2,0.6l-0.8,1.1c-0.3-0.2-0.6-0.3-0.9-0.4C18.3,23.1,18,23,17.7,23
				c-0.4,0-0.7,0-0.8,0.1c-0.2,0.1-0.2,0.2-0.2,0.4c0,0.1,0,0.2,0.1,0.2c0.1,0.1,0.2,0.1,0.3,0.2c0.1,0.1,0.3,0.1,0.5,0.2
				c0.2,0.1,0.4,0.1,0.6,0.2c0.3,0.1,0.6,0.2,0.9,0.3c0.3,0.1,0.5,0.2,0.7,0.4c0.2,0.1,0.4,0.3,0.5,0.5c0.1,0.2,0.2,0.4,0.2,0.7
				c0,0.3-0.1,0.5-0.2,0.8c-0.1,0.2-0.3,0.5-0.6,0.6c-0.3,0.2-0.6,0.3-0.9,0.4c-0.4,0.1-0.8,0.2-1.3,0.2c-0.6,0-1.1-0.1-1.6-0.3
				c-0.5-0.2-1-0.4-1.4-0.7L15.2,26.1z"/>
		</g>
		<g>
			<path class="st0" d="M27.8,28h-1.5l-0.1-0.9h-0.1c-0.3,0.3-0.6,0.6-0.9,0.8c-0.3,0.2-0.7,0.3-1.2,0.3c-0.7,0-1.2-0.2-1.5-0.7
				C22.2,27,22,26.4,22,25.6v-3.8h1.8v3.6c0,0.4,0.1,0.7,0.2,0.9c0.1,0.2,0.4,0.3,0.7,0.3c0.2,0,0.4,0,0.6-0.1
				c0.2-0.1,0.4-0.3,0.6-0.6v-4.1h1.8V28z"/>
		</g>
		<g>
			<path class="st0" d="M29.8,22.7c0-0.2,0-0.4,0.1-0.6c0.1-0.2,0.2-0.3,0.3-0.5c0.1-0.1,0.3-0.2,0.5-0.3c0.2-0.1,0.4-0.1,0.6-0.1
				c0.2,0,0.4,0,0.6,0.1c0.2,0.1,0.3,0.2,0.5,0.3c0.1,0.1,0.2,0.3,0.3,0.5c0.1,0.2,0.1,0.4,0.1,0.6c0,0.4-0.1,0.8-0.4,1
				c-0.3,0.3-0.6,0.4-1.1,0.4c-0.4,0-0.8-0.1-1-0.4C29.9,23.4,29.8,23.1,29.8,22.7z M29.8,26.7c0-0.2,0-0.4,0.1-0.6
				c0.1-0.2,0.2-0.3,0.3-0.5c0.1-0.1,0.3-0.2,0.5-0.3c0.2-0.1,0.4-0.1,0.6-0.1c0.2,0,0.4,0,0.6,0.1c0.2,0.1,0.3,0.2,0.5,0.3
				c0.1,0.1,0.2,0.3,0.3,0.5c0.1,0.2,0.1,0.4,0.1,0.6c0,0.4-0.1,0.8-0.4,1s-0.6,0.4-1.1,0.4c-0.4,0-0.8-0.1-1-0.4
				C29.9,27.5,29.8,27.1,29.8,26.7z"/>
		</g>
		<g>
			<path class="st0" d="M37.8,21.8h1.8l0.4,2.9c0,0.3,0.1,0.6,0.1,0.9c0,0.3,0.1,0.6,0.1,0.9h0c0-0.3,0.1-0.6,0.1-0.9
				c0-0.3,0.1-0.6,0.2-0.9l0.4-2h1.3l0.4,2c0.1,0.3,0.1,0.6,0.2,0.9c0,0.3,0.1,0.6,0.1,0.9H43c0-0.3,0.1-0.6,0.1-0.9
				c0-0.3,0.1-0.6,0.1-0.9l0.4-2.9h1.7l-1,6.2h-2.1L41.8,26c0-0.3-0.1-0.6-0.1-0.9c0-0.3-0.1-0.6-0.1-0.9h-0.1
				c0,0.2-0.1,0.5-0.1,0.8c0,0.3-0.1,0.6-0.1,1.1L40.9,28h-2.1L37.8,21.8z"/>
		</g>
		<g>
			<path class="st0" d="M45.9,24.9c0-0.5,0.1-1,0.3-1.4c0.2-0.4,0.4-0.7,0.7-1c0.3-0.3,0.6-0.5,1-0.6s0.8-0.2,1.2-0.2
				c0.5,0,0.9,0.1,1.3,0.2c0.4,0.2,0.7,0.4,0.9,0.6c0.2,0.3,0.4,0.6,0.5,0.9c0.1,0.4,0.2,0.8,0.2,1.2c0,0.2,0,0.3,0,0.5
				c0,0.1,0,0.2-0.1,0.3h-4.2c0.1,0.5,0.3,0.8,0.6,1c0.3,0.2,0.7,0.3,1.2,0.3c0.3,0,0.6,0,0.8-0.1c0.3-0.1,0.5-0.2,0.8-0.3l0.6,1.1
				c-0.4,0.2-0.7,0.4-1.2,0.5c-0.4,0.1-0.9,0.2-1.3,0.2c-0.5,0-0.9-0.1-1.4-0.2c-0.4-0.1-0.8-0.4-1.1-0.6s-0.6-0.6-0.7-1
				C46,25.9,45.9,25.4,45.9,24.9z M50.4,24.3c0-0.4-0.1-0.7-0.3-0.9c-0.2-0.2-0.5-0.3-0.9-0.3c-0.3,0-0.6,0.1-0.9,0.3
				s-0.4,0.5-0.5,0.9H50.4z"/>
		</g>
		<g>
			<path class="st0" d="M53.4,19.3h1.8v2.2l-0.1,1c0.2-0.2,0.5-0.4,0.8-0.5c0.3-0.1,0.6-0.2,0.9-0.2c0.4,0,0.7,0.1,1,0.2
				s0.6,0.4,0.8,0.6s0.4,0.6,0.5,1c0.1,0.4,0.2,0.8,0.2,1.3c0,0.5-0.1,1-0.2,1.4c-0.1,0.4-0.4,0.8-0.6,1.1c-0.2,0.3-0.5,0.5-0.9,0.7
				c-0.3,0.2-0.7,0.2-1,0.2c-0.3,0-0.6-0.1-0.9-0.2c-0.3-0.1-0.6-0.3-0.8-0.6H55L54.8,28h-1.4V19.3z M55.2,26.3
				c0.2,0.2,0.4,0.3,0.5,0.3c0.2,0.1,0.4,0.1,0.5,0.1c0.3,0,0.6-0.1,0.9-0.4c0.2-0.3,0.4-0.8,0.4-1.4c0-1.1-0.4-1.7-1.1-1.7
				c-0.4,0-0.8,0.2-1.1,0.6V26.3z"/>
		</g>
		<g>
			<path class="st0" d="M60.8,23.6h4.4V25h-4.4V23.6z"/>
		</g>
		<g>
			<path class="st0" d="M67.1,24.9c0-0.5,0.1-1,0.2-1.4c0.2-0.4,0.3-0.7,0.6-1c0.2-0.3,0.5-0.5,0.8-0.6s0.6-0.2,1-0.2
				c0.4,0,0.7,0.1,0.9,0.2c0.2,0.1,0.5,0.3,0.7,0.5l-0.1-1v-2.1h1.8V28h-1.5l-0.1-0.6h0c-0.2,0.2-0.5,0.4-0.8,0.6
				c-0.3,0.2-0.6,0.2-0.9,0.2c-0.4,0-0.7-0.1-1.1-0.2c-0.3-0.1-0.6-0.4-0.8-0.6c-0.2-0.3-0.4-0.6-0.5-1
				C67.2,25.9,67.1,25.4,67.1,24.9z M69,24.9c0,0.6,0.1,1.1,0.3,1.4c0.2,0.3,0.5,0.4,0.9,0.4c0.2,0,0.4,0,0.6-0.1
				c0.2-0.1,0.3-0.2,0.5-0.4v-2.5c-0.2-0.2-0.3-0.3-0.5-0.3c-0.2-0.1-0.3-0.1-0.5-0.1c-0.3,0-0.6,0.1-0.9,0.4
				C69.1,23.9,69,24.3,69,24.9z"/>
		</g>
		<g>
			<path class="st0" d="M74.4,24.9c0-0.5,0.1-1,0.3-1.4c0.2-0.4,0.4-0.7,0.7-1c0.3-0.3,0.6-0.5,1-0.6s0.8-0.2,1.2-0.2
				c0.5,0,0.9,0.1,1.3,0.2c0.4,0.2,0.7,0.4,0.9,0.6c0.2,0.3,0.4,0.6,0.5,0.9c0.1,0.4,0.2,0.8,0.2,1.2c0,0.2,0,0.3,0,0.5
				c0,0.1,0,0.2-0.1,0.3h-4.2c0.1,0.5,0.3,0.8,0.6,1c0.3,0.2,0.7,0.3,1.2,0.3c0.3,0,0.6,0,0.8-0.1c0.3-0.1,0.5-0.2,0.8-0.3l0.6,1.1
				c-0.4,0.2-0.7,0.4-1.2,0.5c-0.4,0.1-0.9,0.2-1.3,0.2c-0.5,0-0.9-0.1-1.4-0.2c-0.4-0.1-0.8-0.4-1.1-0.6s-0.6-0.6-0.7-1
				C74.5,25.9,74.4,25.4,74.4,24.9z M78.9,24.3c0-0.4-0.1-0.7-0.3-0.9c-0.2-0.2-0.5-0.3-0.9-0.3c-0.3,0-0.6,0.1-0.9,0.3
				s-0.4,0.5-0.5,0.9H78.9z"/>
		</g>
		<g>
			<path class="st0" d="M82.5,26.1c0.4,0.2,0.7,0.4,1.1,0.5c0.4,0.1,0.8,0.2,1.2,0.2c0.4,0,0.7,0,0.9-0.1c0.2-0.1,0.3-0.2,0.3-0.4
				c0-0.2-0.2-0.3-0.5-0.5c-0.3-0.1-0.7-0.3-1.2-0.4c-0.3-0.1-0.5-0.2-0.8-0.3c-0.3-0.1-0.5-0.2-0.7-0.4c-0.2-0.1-0.4-0.3-0.5-0.5
				c-0.1-0.2-0.2-0.4-0.2-0.7c0-0.3,0.1-0.5,0.2-0.8c0.1-0.2,0.3-0.4,0.6-0.6c0.2-0.2,0.5-0.3,0.9-0.4c0.4-0.1,0.8-0.1,1.2-0.1
				c0.5,0,1.1,0.1,1.5,0.3c0.5,0.2,0.8,0.4,1.2,0.6l-0.8,1.1c-0.3-0.2-0.6-0.3-0.9-0.4C85.6,23.1,85.3,23,85,23
				c-0.4,0-0.7,0-0.8,0.1c-0.2,0.1-0.2,0.2-0.2,0.4c0,0.1,0,0.2,0.1,0.2c0.1,0.1,0.2,0.1,0.3,0.2c0.1,0.1,0.3,0.1,0.5,0.2
				c0.2,0.1,0.4,0.1,0.6,0.2c0.3,0.1,0.6,0.2,0.9,0.3c0.3,0.1,0.5,0.2,0.7,0.4c0.2,0.1,0.4,0.3,0.5,0.5c0.1,0.2,0.2,0.4,0.2,0.7
				c0,0.3-0.1,0.5-0.2,0.8c-0.1,0.2-0.3,0.5-0.6,0.6c-0.3,0.2-0.6,0.3-0.9,0.4c-0.4,0.1-0.8,0.2-1.3,0.2c-0.6,0-1.1-0.1-1.6-0.3
				c-0.5-0.2-1-0.4-1.4-0.7L82.5,26.1z"/>
		</g>
		<g>
			<path class="st0" d="M88.7,21.8h4.3V28h-1.8v-4.8h-2.5V21.8z M92.1,20.9c-0.4,0-0.7-0.1-0.9-0.3c-0.2-0.2-0.3-0.5-0.3-0.8
				c0-0.3,0.1-0.6,0.3-0.8c0.2-0.2,0.5-0.3,0.9-0.3c0.4,0,0.7,0.1,0.9,0.3c0.2,0.2,0.3,0.5,0.3,0.8c0,0.3-0.1,0.6-0.3,0.8
				C92.7,20.8,92.4,20.9,92.1,20.9z"/>
		</g>
		<g>
			<path class="st0" d="M94.7,29.1c0-0.5,0.3-0.9,1-1.2v-0.1c-0.2-0.1-0.3-0.2-0.4-0.4C95.1,27.2,95,27,95,26.7
				c0-0.2,0.1-0.4,0.2-0.6c0.1-0.2,0.3-0.4,0.5-0.5v-0.1c-0.2-0.2-0.4-0.4-0.6-0.6c-0.2-0.3-0.2-0.6-0.2-1c0-0.4,0.1-0.7,0.2-1
				c0.1-0.3,0.3-0.5,0.6-0.7c0.2-0.2,0.5-0.3,0.8-0.4c0.3-0.1,0.7-0.1,1-0.1c0.4,0,0.7,0.1,1,0.1h2.5v1.3h-1.3
				c0.1,0.1,0.1,0.2,0.2,0.4c0.1,0.1,0.1,0.3,0.1,0.5c0,0.4-0.1,0.7-0.2,0.9c-0.1,0.3-0.3,0.5-0.5,0.6c-0.2,0.2-0.5,0.3-0.8,0.4
				c-0.3,0.1-0.6,0.1-1,0.1c-0.3,0-0.5,0-0.8-0.1c-0.1,0.1-0.2,0.1-0.2,0.2c0,0.1-0.1,0.1-0.1,0.2c0,0.2,0.1,0.3,0.3,0.4
				c0.2,0.1,0.4,0.1,0.8,0.1h1.2c0.8,0,1.4,0.1,1.9,0.4c0.4,0.2,0.6,0.6,0.6,1.2c0,0.3-0.1,0.6-0.3,0.9c-0.2,0.3-0.4,0.5-0.7,0.7
				c-0.3,0.2-0.7,0.4-1.2,0.5c-0.5,0.1-1,0.2-1.5,0.2c-0.4,0-0.8,0-1.1-0.1c-0.3-0.1-0.6-0.2-0.9-0.3c-0.2-0.1-0.4-0.3-0.6-0.5
				C94.7,29.6,94.7,29.3,94.7,29.1z M96.2,28.8c0,0.2,0.1,0.4,0.4,0.5c0.3,0.1,0.7,0.2,1.2,0.2c0.5,0,0.9-0.1,1.2-0.2
				c0.3-0.1,0.5-0.3,0.5-0.5c0-0.2-0.1-0.3-0.3-0.4c-0.2-0.1-0.5-0.1-0.8-0.1h-0.8c-0.2,0-0.4,0-0.6,0c-0.1,0-0.3,0-0.4-0.1
				c-0.2,0.1-0.3,0.2-0.3,0.3C96.2,28.6,96.2,28.7,96.2,28.8z M97.6,24.9c0.3,0,0.5-0.1,0.7-0.3c0.2-0.2,0.3-0.4,0.3-0.8
				c0-0.3-0.1-0.6-0.3-0.8c-0.2-0.2-0.4-0.3-0.7-0.3c-0.3,0-0.5,0.1-0.7,0.3c-0.2,0.2-0.3,0.4-0.3,0.8c0,0.3,0.1,0.6,0.3,0.8
				C97.1,24.9,97.3,24.9,97.6,24.9z"/>
		</g>
		<g>
			<path class="st0" d="M102.7,21.8h1.5l0.1,0.8h0.1c0.3-0.3,0.6-0.5,0.9-0.7c0.3-0.2,0.8-0.3,1.2-0.3c0.7,0,1.2,0.2,1.5,0.7
				c0.3,0.4,0.5,1.1,0.5,1.8V28h-1.8v-3.6c0-0.4-0.1-0.7-0.2-0.9c-0.1-0.2-0.4-0.3-0.7-0.3c-0.3,0-0.5,0.1-0.7,0.2
				c-0.2,0.1-0.4,0.3-0.6,0.5V28h-1.8V21.8z"/>
		</g>
		<g>
			<path class="st0" d="M110.6,28.9c0.9-0.3,1.4-0.8,1.4-1.5c0,0-0.1,0-0.1,0c-0.1,0-0.3,0-0.4-0.1c-0.1,0-0.3-0.1-0.4-0.2
				c-0.1-0.1-0.2-0.2-0.2-0.3c-0.1-0.1-0.1-0.3-0.1-0.5c0-0.3,0.1-0.6,0.3-0.8c0.2-0.2,0.5-0.3,0.8-0.3c0.4,0,0.8,0.2,1,0.5
				c0.2,0.3,0.3,0.8,0.3,1.3c0,0.7-0.2,1.2-0.6,1.7c-0.4,0.5-0.9,0.8-1.6,1L110.6,28.9z M110.7,23c0-0.2,0-0.3,0.1-0.5
				c0.1-0.1,0.1-0.3,0.2-0.4c0.1-0.1,0.2-0.2,0.4-0.3c0.1-0.1,0.3-0.1,0.5-0.1s0.3,0,0.5,0.1c0.1,0.1,0.3,0.1,0.4,0.3
				c0.1,0.1,0.2,0.2,0.2,0.4c0.1,0.1,0.1,0.3,0.1,0.5c0,0.3-0.1,0.6-0.3,0.9c-0.2,0.2-0.5,0.3-0.9,0.3c-0.4,0-0.7-0.1-0.9-0.3
				C110.8,23.7,110.7,23.4,110.7,23z"/>
		</g>
		<g>
			<path class="st0" d="M115.5,28.8c0.2,0,0.4,0,0.6,0c0.1,0,0.3-0.1,0.4-0.1c0.1-0.1,0.1-0.1,0.2-0.2c0-0.1,0.1-0.2,0.1-0.4
				c0-0.3,0-0.6,0-0.9c0-0.3,0-0.6,0-1c0-0.5,0.1-0.9,0.3-1.1c0.2-0.2,0.5-0.4,1-0.4v-0.1c-0.5-0.1-0.8-0.2-1-0.4
				c-0.2-0.2-0.3-0.6-0.3-1.1c0-0.4,0-0.7,0-1c0-0.3,0-0.6,0-0.9c0-0.2,0-0.3-0.1-0.4c0-0.1-0.1-0.2-0.2-0.2
				c-0.1-0.1-0.2-0.1-0.4-0.1c-0.2,0-0.3,0-0.6,0h-0.5v-1.1h1c0.8,0,1.4,0.1,1.8,0.4c0.4,0.3,0.6,0.7,0.6,1.4c0,0.2,0,0.4,0,0.6
				c0,0.2,0,0.3-0.1,0.5c0,0.1,0,0.3-0.1,0.5c0,0.2,0,0.3,0,0.5c0,0.1,0,0.2,0.1,0.3s0.1,0.2,0.3,0.3c0.1,0.1,0.3,0.2,0.5,0.2
				c0.2,0.1,0.5,0.1,0.8,0.1v1.2c-0.3,0-0.6,0-0.8,0.1c-0.2,0.1-0.4,0.1-0.5,0.2s-0.2,0.2-0.3,0.3c-0.1,0.1-0.1,0.2-0.1,0.3
				c0,0.2,0,0.4,0,0.5s0,0.3,0.1,0.5c0,0.2,0,0.3,0.1,0.5c0,0.2,0,0.4,0,0.6c0,0.3,0,0.6-0.1,0.9c-0.1,0.2-0.2,0.4-0.4,0.6
				c-0.2,0.1-0.4,0.2-0.7,0.3s-0.6,0.1-1,0.1h-1v-1.1H115.5z"/>
		</g>
	</g>
</g>
</svg>
