<svg id="Layer_1" xmlns="http://www.w3.org/2000/svg" viewBox="0 0 120 31"><style>.st0{fill:#fff}</style><path class="st0" d="M116.1 2.7v9.7H52.5V2.7h63.6m2.4-2.4H50.1v14.5h68.4V.3zM17 15.1l-1.7-1.7 5.5-5.6-5.5-5.5L17 .6l7.2 7.2zM7.3 15.1L.1 7.8 7.3.6 9 2.3 3.4 7.8 9 13.4zM30.1 9.9L28.6 8l8.9-6.9L46.4 8 45 9.9l-7.5-5.8z"/><path class="st0" d="M43.3 14.3H31.8V5.8h2.4v6.1h6.7V5.8h2.4z"/><g><path class="st0" d="M1.5 28.1v-.6-.5-.5-.5c0-.1 0-.2-.1-.3-.1-.1-.1-.2-.3-.3s-.1-.1-.3-.1c-.2-.1-.5-.1-.8-.1V24c.3 0 .6 0 .8-.1.2-.1.4-.1.5-.2l.3-.3c.1-.1.1-.2.1-.3v-.5-.5-.5-.6c0-.3 0-.6.1-.9.1-.2.2-.4.4-.6.2-.1.4-.2.7-.3.3-.1.6-.1 1.1-.1h1v1.1H3.9c-.1 0-.3.1-.4.1l-.2.2c0 .1-.1.2-.1.4v1.9c0 .5-.1.9-.3 1.1-.2.2-.5.4-1 .4v.1c.5.1.8.2 1 .4.2.2.3.6.3 1.1v1.9c0 .2 0 .3.1.4 0 .1.1.2.2.2.1.1.2.1.4.1H5v1.1H4c-.4 0-.8 0-1.1-.1s-.5-.2-.7-.3c-.2-.1-.3-.3-.4-.6-.2.1-.3-.2-.3-.5zM6.7 21.8h1.4l.1.8h.1c.1-.3.3-.5.5-.7.2-.2.5-.3.8-.3.3 0 .5.1.7.3.2.2.3.4.4.8.1-.3.3-.5.5-.7.2-.2.5-.3.9-.3s.8.2 1 .5c.2.4.4.8.4 1.5V28h-1.7v-4.2c0-.4-.1-.6-.4-.6-.2 0-.4.2-.6.6V28H9.3v-4.2c0-.4-.1-.6-.4-.6-.1 0-.2.1-.3.1-.1.1-.2.3-.3.5V28H6.7v-6.2zM15.2 26.1c.4.2.7.4 1.1.5.4.1.8.2 1.2.2.4 0 .7 0 .9-.1.2-.1.3-.2.3-.4s-.2-.3-.5-.5c-.3-.1-.7-.3-1.2-.4-.3-.1-.5-.2-.8-.3-.3-.1-.5-.2-.7-.4-.2-.1-.4-.3-.5-.5-.1-.2-.2-.4-.2-.7 0-.3.1-.5.2-.8.1-.2.3-.4.6-.6.2-.2.5-.3.9-.4.4-.1.8-.1 1.2-.1.5 0 1.1.1 1.5.3.5.2.8.4 1.2.6l-.8 1.1c-.3-.2-.6-.3-.9-.4-.4-.1-.7-.2-1-.2-.4 0-.7 0-.8.1-.2.1-.2.2-.2.4 0 .1 0 .2.1.2.1.1.2.1.3.2.1.1.3.1.5.2s.4.1.6.2l.9.3c.3.1.5.2.7.4.2.1.4.3.5.5.1.2.2.4.2.7 0 .3-.1.5-.2.8-.1.2-.3.5-.6.6-.3.2-.6.3-.9.4-.4.1-.8.2-1.3.2-.6 0-1.1-.1-1.6-.3-.5-.2-1-.4-1.4-.7l.7-1.1zM27.8 28h-1.5l-.1-.9h-.1c-.3.3-.6.6-.9.8-.3.2-.7.3-1.2.3-.7 0-1.2-.2-1.5-.7-.3-.5-.5-1.1-.5-1.9v-3.8h1.8v3.6c0 .4.1.7.2.9.1.2.4.3.7.3.2 0 .4 0 .6-.1.2-.1.4-.3.6-.6v-4.1h1.8V28zM29.8 22.7c0-.2 0-.4.1-.6.1-.2.2-.3.3-.5.1-.1.3-.2.5-.3.2-.1.4-.1.6-.1.2 0 .4 0 .6.1.2.1.3.2.5.3.1.1.2.3.3.5.1.2.1.4.1.6 0 .4-.1.8-.4 1-.3.3-.6.4-1.1.4-.4 0-.8-.1-1-.4-.4-.3-.5-.6-.5-1zm0 4c0-.2 0-.4.1-.6.1-.2.2-.3.3-.5.1-.1.3-.2.5-.3.2-.1.4-.1.6-.1.2 0 .4 0 .6.1.2.1.3.2.5.3.1.1.2.3.3.5.1.2.1.4.1.6 0 .4-.1.8-.4 1s-.6.4-1.1.4c-.4 0-.8-.1-1-.4-.4-.2-.5-.6-.5-1zM37.8 21.8h1.8l.4 2.9c0 .3.1.6.1.9 0 .3.1.6.1.9 0-.3.1-.6.1-.9 0-.3.1-.6.2-.9l.4-2h1.3l.4 2c.1.3.1.6.2.9 0 .3.1.6.1.9h.1c0-.3.1-.6.1-.9 0-.3.1-.6.1-.9l.4-2.9h1.7l-1 6.2h-2.1l-.4-2c0-.3-.1-.6-.1-.9 0-.3-.1-.6-.1-.9h-.1c0 .2-.1.5-.1.8 0 .3-.1.6-.1 1.1l-.4 1.9h-2.1l-1-6.2zM45.9 24.9c0-.5.1-1 .3-1.4.2-.4.4-.7.7-1 .3-.3.6-.5 1-.6s.8-.2 1.2-.2c.5 0 .9.1 1.3.2.4.2.7.4.9.6.2.3.4.6.5.9.1.4.2.8.2 1.2v.5c0 .1 0 .2-.1.3h-4.2c.1.5.3.8.6 1 .3.2.7.3 1.2.3.3 0 .6 0 .8-.1.3-.1.5-.2.8-.3l.6 1.1c-.4.2-.7.4-1.2.5-.4.1-.9.2-1.3.2-.5 0-.9-.1-1.4-.2-.4-.1-.8-.4-1.1-.6s-.6-.6-.7-1c0-.4-.1-.9-.1-1.4zm4.5-.6c0-.4-.1-.7-.3-.9-.2-.2-.5-.3-.9-.3-.3 0-.6.1-.9.3s-.4.5-.5.9h2.6zM53.4 19.3h1.8v2.2l-.1 1c.2-.2.5-.4.8-.5.3-.1.6-.2.9-.2.4 0 .7.1 1 .2s.6.4.8.6.4.6.5 1c.1.4.2.8.2 1.3s-.1 1-.2 1.4c-.1.4-.4.8-.6 1.1-.2.3-.5.5-.9.7-.3.2-.7.2-1 .2-.3 0-.6-.1-.9-.2-.3-.1-.6-.3-.8-.6h.1l-.2.5h-1.4v-8.7zm1.8 7c.2.2.4.3.5.3.2.1.4.1.5.1.3 0 .6-.1.9-.4.2-.3.4-.8.4-1.4 0-1.1-.4-1.7-1.1-1.7-.4 0-.8.2-1.1.6v2.5zM60.8 23.6h4.4V25h-4.4v-1.4zM67.1 24.9c0-.5.1-1 .2-1.4.2-.4.3-.7.6-1 .2-.3.5-.5.8-.6s.6-.2 1-.2.7.1.9.2c.2.1.5.3.7.5l-.1-1v-2.1H73V28h-1.5l-.1-.6c-.2.2-.5.4-.8.6-.3.2-.6.2-.9.2-.4 0-.7-.1-1.1-.2-.3-.1-.6-.4-.8-.6-.2-.3-.4-.6-.5-1-.1-.5-.2-1-.2-1.5zm1.9 0c0 .6.1 1.1.3 1.4.2.3.5.4.9.4.2 0 .4 0 .6-.1.2-.1.3-.2.5-.4v-2.5c-.2-.2-.3-.3-.5-.3-.2-.1-.3-.1-.5-.1-.3 0-.6.1-.9.4-.3.2-.4.6-.4 1.2zM74.4 24.9c0-.5.1-1 .3-1.4.2-.4.4-.7.7-1 .3-.3.6-.5 1-.6s.8-.2 1.2-.2c.5 0 .9.1 1.3.2.4.2.7.4.9.6.2.3.4.6.5.9.1.4.2.8.2 1.2v.5c0 .1 0 .2-.1.3h-4.2c.1.5.3.8.6 1 .3.2.7.3 1.2.3.3 0 .6 0 .8-.1.3-.1.5-.2.8-.3l.6 1.1c-.4.2-.7.4-1.2.5-.4.1-.9.2-1.3.2-.5 0-.9-.1-1.4-.2-.4-.1-.8-.4-1.1-.6s-.6-.6-.7-1c0-.4-.1-.9-.1-1.4zm4.5-.6c0-.4-.1-.7-.3-.9-.2-.2-.5-.3-.9-.3-.3 0-.6.1-.9.3s-.4.5-.5.9h2.6zM82.5 26.1c.4.2.7.4 1.1.5.4.1.8.2 1.2.2.4 0 .7 0 .9-.1.2-.1.3-.2.3-.4s-.2-.3-.5-.5c-.3-.1-.7-.3-1.2-.4-.3-.1-.5-.2-.8-.3-.3-.1-.5-.2-.7-.4-.2-.1-.4-.3-.5-.5-.1-.2-.2-.4-.2-.7 0-.3.1-.5.2-.8.1-.2.3-.4.6-.6.2-.2.5-.3.9-.4.4-.1.8-.1 1.2-.1.5 0 1.1.1 1.5.3.5.2.8.4 1.2.6l-.8 1.1c-.3-.2-.6-.3-.9-.4-.4-.1-.7-.2-1-.2-.4 0-.7 0-.8.1-.2.1-.2.2-.2.4 0 .1 0 .2.1.2.1.1.2.1.3.2.1.1.3.1.5.2s.4.1.6.2l.9.3c.3.1.5.2.7.4.2.1.4.3.5.5.1.2.2.4.2.7 0 .3-.1.5-.2.8-.1.2-.3.5-.6.6-.3.2-.6.3-.9.4-.4.1-.8.2-1.3.2-.6 0-1.1-.1-1.6-.3-.5-.2-1-.4-1.4-.7l.7-1.1zM88.7 21.8H93V28h-1.8v-4.8h-2.5v-1.4zm3.4-.9c-.4 0-.7-.1-.9-.3-.2-.2-.3-.5-.3-.8 0-.3.1-.6.3-.8.2-.2.5-.3.9-.3s.7.1.9.3c.2.2.3.5.3.8 0 .3-.1.6-.3.8-.3.2-.6.3-.9.3zM94.7 29.1c0-.5.3-.9 1-1.2v-.1c-.2-.1-.3-.2-.4-.4-.2-.2-.3-.4-.3-.7 0-.2.1-.4.2-.6.1-.2.3-.4.5-.5v-.1l-.6-.6c-.2-.3-.2-.6-.2-1s.1-.7.2-1c.1-.3.3-.5.6-.7.2-.2.5-.3.8-.4.3-.1.7-.1 1-.1.4 0 .7.1 1 .1h2.5v1.3h-1.3c.1.1.1.2.2.4.1.1.1.3.1.5 0 .4-.1.7-.2.9-.1.3-.3.5-.5.6-.2.2-.5.3-.8.4-.3.1-.6.1-1 .1-.3 0-.5 0-.8-.1-.1.1-.2.1-.2.2s-.1.1-.1.2c0 .2.1.3.3.4.2.1.4.1.8.1h1.2c.8 0 1.4.1 1.9.4.4.2.6.6.6 1.2 0 .3-.1.6-.3.9-.2.3-.4.5-.7.7-.3.2-.7.4-1.2.5-.5.1-1 .2-1.5.2-.4 0-.8 0-1.1-.1l-.9-.3c-.2-.1-.4-.3-.6-.5-.2-.2-.2-.5-.2-.7zm1.5-.3c0 .2.1.4.4.5.3.1.7.2 1.2.2s.9-.1 1.2-.2c.3-.1.5-.3.5-.5s-.1-.3-.3-.4c-.2-.1-.5-.1-.8-.1H97c-.1 0-.3 0-.4-.1-.2.1-.3.2-.3.3-.1.1-.1.2-.1.3zm1.4-3.9c.3 0 .5-.1.7-.3.2-.2.3-.4.3-.8 0-.3-.1-.6-.3-.8-.2-.2-.4-.3-.7-.3-.3 0-.5.1-.7.3-.2.2-.3.4-.3.8 0 .3.1.6.3.8.2.3.4.3.7.3zM102.7 21.8h1.5l.1.8h.1c.3-.3.6-.5.9-.7.3-.2.8-.3 1.2-.3.7 0 1.2.2 1.5.7.3.4.5 1.1.5 1.8V28h-1.8v-3.6c0-.4-.1-.7-.2-.9-.1-.2-.4-.3-.7-.3-.3 0-.5.1-.7.2-.2.1-.4.3-.6.5V28h-1.8v-6.2zM110.6 28.9c.9-.3 1.4-.8 1.4-1.5h-.1c-.1 0-.3 0-.4-.1-.1 0-.3-.1-.4-.2-.1-.1-.2-.2-.2-.3-.1-.1-.1-.3-.1-.5 0-.3.1-.6.3-.8.2-.2.5-.3.8-.3.4 0 .8.2 1 .5.2.3.3.8.3 1.3 0 .7-.2 1.2-.6 1.7-.4.5-.9.8-1.6 1l-.4-.8zm.1-5.9c0-.2 0-.3.1-.5.1-.1.1-.3.2-.4.1-.1.2-.2.4-.3.1-.1.3-.1.5-.1s.3 0 .5.1c.1.1.3.1.4.3.1.1.2.2.2.4.1.1.1.3.1.5 0 .3-.1.6-.3.9-.2.2-.5.3-.9.3s-.7-.1-.9-.3c-.2-.2-.3-.5-.3-.9zM115.5 28.8h.6c.1 0 .3-.1.4-.1l.2-.2c0-.1.1-.2.1-.4v-.9-1c0-.5.1-.9.3-1.1.2-.2.5-.4 1-.4v-.1c-.5-.1-.8-.2-1-.4-.2-.2-.3-.6-.3-1.1v-1-.9c0-.2 0-.3-.1-.4 0-.1-.1-.2-.2-.2-.1-.1-.2-.1-.4-.1H115v-1.1h1c.8 0 1.4.1 1.8.4.4.3.6.7.6 1.4v.6c0 .2 0 .3-.1.5 0 .1 0 .3-.1.5v.5c0 .1 0 .2.1.3s.1.2.3.3c.1.1.3.2.5.2.2.1.5.1.8.1v1.2c-.3 0-.6 0-.8.1-.2.1-.4.1-.5.2l-.3.3c-.1.1-.1.2-.1.3v.5c0 .1 0 .3.1.5 0 .2 0 .3.1.5v.6c0 .3 0 .6-.1.9-.1.2-.2.4-.4.6-.2.1-.4.2-.7.3s-.6.1-1 .1h-1v-1.1h.3z"/></g></svg>
